<svg width="653" height="800" viewBox="0 0 653 800" fill="none" xmlns="http://www.w3.org/2000/svg">
<path d="M0 0H653V800H0V0Z" fill="white"/>
<path d="M0 0H653V800H0V0Z" fill="url(#paint0_linear_290_321)"/>
<path d="M522.946 179.636L524.722 207.122L501.71 191.71L492.193 208.472L516.98 220.545L492.193 232.619L501.71 249.381L524.722 233.969L522.946 261.455H542.051L540.205 233.969L563.216 249.381L572.733 232.619L548.017 220.545L572.733 208.472L563.216 191.71L540.205 207.122L542.051 179.636H522.946Z" fill="white"/>
<path d="M133.892 310.273L137.443 365.244L91.4205 334.42L72.3864 367.943L121.96 392.091L72.3864 416.239L91.4205 449.761L137.443 418.938L133.892 473.909H172.102L168.409 418.938L214.432 449.761L233.466 416.239L184.034 392.091L233.466 367.943L214.432 334.42L168.409 365.244L172.102 310.273H133.892Z" fill="white"/>
<defs>
<linearGradient id="paint0_linear_290_321" x1="0" y1="0" x2="717.011" y2="925.204" gradientUnits="userSpaceOnUse">
<stop offset="0.0429934" stop-color="#5433FF"/>
<stop offset="0.53125" stop-color="#20BDFF"/>
<stop offset="1" stop-color="#A5F1FE"/>
</linearGradient>
</defs>
</svg>
