<svg width="655" height="801" viewBox="0 0 655 801" fill="none" xmlns="http://www.w3.org/2000/svg">
<path d="M0.5 0.5H654.5V800.5H0.5V0.5Z" fill="white"/>
<path d="M0 1H652V801H0V1Z" fill="url(#paint0_linear_290_321)"/>
<path d="M522.946 180.636L524.722 208.122L501.71 192.71L492.193 209.472L516.98 221.545L492.193 233.619L501.71 250.381L524.722 234.969L522.946 262.455H542.051L540.205 234.969L563.216 250.381L572.733 233.619L548.017 221.545L572.733 209.472L563.216 192.71L540.205 208.122L542.051 180.636H522.946Z" fill="white"/>
<path d="M133.892 311.273L137.443 366.244L91.4205 335.42L72.3864 368.943L121.96 393.091L72.3864 417.239L91.4205 450.761L137.443 419.938L133.892 474.909H172.102L168.409 419.938L214.432 450.761L233.466 417.239L184.034 393.091L233.466 368.943L214.432 335.42L168.409 366.244L172.102 311.273H133.892Z" fill="white"/>
<defs>
<linearGradient id="paint0_linear_290_321" x1="0" y1="1" x2="709.526" y2="899.614" gradientUnits="userSpaceOnUse">
<stop offset="0.0429934" stop-color="#A770EF"/>
<stop offset="0.46875" stop-color="#CF8BF3" stop-opacity="0.555116"/>
<stop offset="1" stop-color="#FDB99B"/>
</linearGradient>
</defs>
</svg>
